<mxfile host="65bd71144e">
    <diagram id="159i7CWXNdlffMHSl1L0" name="Page-1">
        <mxGraphModel dx="2476" dy="864" grid="1" gridSize="10" guides="1" tooltips="1" connect="1" arrows="1" fold="1" page="1" pageScale="1" pageWidth="827" pageHeight="1169" background="#FFFFFF" math="0" shadow="0">
            <root>
                <mxCell id="0"/>
                <mxCell id="1" parent="0"/>
                <mxCell id="JhjFdFe-J3i2mgKOBmKf-1" value="&lt;font style=&quot;font-size: 36px;&quot;&gt;IF&lt;/font&gt;" style="rounded=0;whiteSpace=wrap;html=1;" parent="1" vertex="1">
                    <mxGeometry x="100" y="220" width="120" height="60" as="geometry"/>
                </mxCell>
                <mxCell id="JhjFdFe-J3i2mgKOBmKf-2" value="&lt;font style=&quot;font-size: 36px;&quot;&gt;ID&lt;/font&gt;" style="rounded=0;whiteSpace=wrap;html=1;" parent="1" vertex="1">
                    <mxGeometry x="220" y="220" width="120" height="60" as="geometry"/>
                </mxCell>
                <mxCell id="JhjFdFe-J3i2mgKOBmKf-3" value="&lt;font style=&quot;font-size: 36px;&quot;&gt;EX&lt;/font&gt;" style="rounded=0;whiteSpace=wrap;html=1;" parent="1" vertex="1">
                    <mxGeometry x="340" y="220" width="120" height="60" as="geometry"/>
                </mxCell>
                <mxCell id="JhjFdFe-J3i2mgKOBmKf-4" value="&lt;font style=&quot;font-size: 36px;&quot;&gt;MEM&lt;/font&gt;" style="rounded=0;whiteSpace=wrap;html=1;" parent="1" vertex="1">
                    <mxGeometry x="460" y="220" width="120" height="60" as="geometry"/>
                </mxCell>
                <mxCell id="JhjFdFe-J3i2mgKOBmKf-5" value="&lt;font style=&quot;font-size: 36px;&quot;&gt;WB&lt;/font&gt;" style="rounded=0;whiteSpace=wrap;html=1;" parent="1" vertex="1">
                    <mxGeometry x="580" y="220" width="120" height="60" as="geometry"/>
                </mxCell>
                <mxCell id="JhjFdFe-J3i2mgKOBmKf-6" value="" style="rounded=0;whiteSpace=wrap;html=1;" parent="1" vertex="1">
                    <mxGeometry x="700" y="220" width="120" height="60" as="geometry"/>
                </mxCell>
                <mxCell id="JhjFdFe-J3i2mgKOBmKf-7" value="" style="rounded=0;whiteSpace=wrap;html=1;" parent="1" vertex="1">
                    <mxGeometry x="820" y="220" width="120" height="60" as="geometry"/>
                </mxCell>
                <mxCell id="JhjFdFe-J3i2mgKOBmKf-8" value="" style="rounded=0;whiteSpace=wrap;html=1;" parent="1" vertex="1">
                    <mxGeometry x="940" y="220" width="120" height="60" as="geometry"/>
                </mxCell>
                <mxCell id="JhjFdFe-J3i2mgKOBmKf-9" value="" style="rounded=0;whiteSpace=wrap;html=1;" parent="1" vertex="1">
                    <mxGeometry x="1060" y="220" width="120" height="60" as="geometry"/>
                </mxCell>
                <mxCell id="JhjFdFe-J3i2mgKOBmKf-10" value="" style="rounded=0;whiteSpace=wrap;html=1;" parent="1" vertex="1">
                    <mxGeometry x="1180" y="220" width="120" height="60" as="geometry"/>
                </mxCell>
                <mxCell id="JhjFdFe-J3i2mgKOBmKf-11" value="" style="rounded=0;whiteSpace=wrap;html=1;" parent="1" vertex="1">
                    <mxGeometry x="1300" y="220" width="120" height="60" as="geometry"/>
                </mxCell>
                <mxCell id="JhjFdFe-J3i2mgKOBmKf-17" value="&lt;font style=&quot;font-size: 36px;&quot;&gt;-&lt;/font&gt;" style="rounded=0;whiteSpace=wrap;html=1;" parent="1" vertex="1">
                    <mxGeometry x="100" y="280" width="120" height="60" as="geometry"/>
                </mxCell>
                <mxCell id="JhjFdFe-J3i2mgKOBmKf-18" value="&lt;span style=&quot;font-size: 36px;&quot;&gt;IF&lt;/span&gt;" style="rounded=0;whiteSpace=wrap;html=1;" parent="1" vertex="1">
                    <mxGeometry x="220" y="280" width="120" height="60" as="geometry"/>
                </mxCell>
                <mxCell id="JhjFdFe-J3i2mgKOBmKf-19" value="&lt;span style=&quot;font-size: 36px;&quot;&gt;ID&lt;/span&gt;" style="rounded=0;whiteSpace=wrap;html=1;" parent="1" vertex="1">
                    <mxGeometry x="340" y="280" width="120" height="60" as="geometry"/>
                </mxCell>
                <mxCell id="JhjFdFe-J3i2mgKOBmKf-20" value="&lt;font style=&quot;font-size: 36px;&quot;&gt;STALL&lt;/font&gt;" style="rounded=0;whiteSpace=wrap;html=1;" parent="1" vertex="1">
                    <mxGeometry x="460" y="280" width="120" height="60" as="geometry"/>
                </mxCell>
                <mxCell id="JhjFdFe-J3i2mgKOBmKf-21" value="&lt;span style=&quot;font-size: 36px;&quot;&gt;EX&lt;/span&gt;" style="rounded=0;whiteSpace=wrap;html=1;" parent="1" vertex="1">
                    <mxGeometry x="580" y="280" width="120" height="60" as="geometry"/>
                </mxCell>
                <mxCell id="JhjFdFe-J3i2mgKOBmKf-22" value="&lt;span style=&quot;font-size: 36px;&quot;&gt;MEM&lt;/span&gt;" style="rounded=0;whiteSpace=wrap;html=1;" parent="1" vertex="1">
                    <mxGeometry x="700" y="280" width="120" height="60" as="geometry"/>
                </mxCell>
                <mxCell id="JhjFdFe-J3i2mgKOBmKf-23" value="&lt;span style=&quot;font-size: 36px;&quot;&gt;WB&lt;/span&gt;" style="rounded=0;whiteSpace=wrap;html=1;" parent="1" vertex="1">
                    <mxGeometry x="820" y="280" width="120" height="60" as="geometry"/>
                </mxCell>
                <mxCell id="JhjFdFe-J3i2mgKOBmKf-24" value="" style="rounded=0;whiteSpace=wrap;html=1;" parent="1" vertex="1">
                    <mxGeometry x="940" y="280" width="120" height="60" as="geometry"/>
                </mxCell>
                <mxCell id="JhjFdFe-J3i2mgKOBmKf-25" value="" style="rounded=0;whiteSpace=wrap;html=1;" parent="1" vertex="1">
                    <mxGeometry x="1060" y="280" width="120" height="60" as="geometry"/>
                </mxCell>
                <mxCell id="JhjFdFe-J3i2mgKOBmKf-26" value="" style="rounded=0;whiteSpace=wrap;html=1;" parent="1" vertex="1">
                    <mxGeometry x="1180" y="280" width="120" height="60" as="geometry"/>
                </mxCell>
                <mxCell id="JhjFdFe-J3i2mgKOBmKf-27" value="" style="rounded=0;whiteSpace=wrap;html=1;" parent="1" vertex="1">
                    <mxGeometry x="1300" y="280" width="120" height="60" as="geometry"/>
                </mxCell>
                <mxCell id="JhjFdFe-J3i2mgKOBmKf-35" value="&lt;span style=&quot;font-size: 36px;&quot;&gt;IF&lt;/span&gt;" style="rounded=0;whiteSpace=wrap;html=1;" parent="1" vertex="1">
                    <mxGeometry x="340" y="340" width="120" height="60" as="geometry"/>
                </mxCell>
                <mxCell id="JhjFdFe-J3i2mgKOBmKf-36" value="&lt;span style=&quot;font-size: 36px;&quot;&gt;ID&lt;/span&gt;" style="rounded=0;whiteSpace=wrap;html=1;" parent="1" vertex="1">
                    <mxGeometry x="460" y="340" width="120" height="60" as="geometry"/>
                </mxCell>
                <mxCell id="JhjFdFe-J3i2mgKOBmKf-37" value="&lt;span style=&quot;font-size: 36px;&quot;&gt;STALL&lt;/span&gt;" style="rounded=0;whiteSpace=wrap;html=1;" parent="1" vertex="1">
                    <mxGeometry x="580" y="340" width="120" height="60" as="geometry"/>
                </mxCell>
                <mxCell id="JhjFdFe-J3i2mgKOBmKf-38" value="&lt;span style=&quot;font-size: 36px;&quot;&gt;EX&lt;/span&gt;" style="rounded=0;whiteSpace=wrap;html=1;" parent="1" vertex="1">
                    <mxGeometry x="700" y="340" width="120" height="60" as="geometry"/>
                </mxCell>
                <mxCell id="JhjFdFe-J3i2mgKOBmKf-39" value="&lt;span style=&quot;font-size: 36px;&quot;&gt;MEM&lt;/span&gt;" style="rounded=0;whiteSpace=wrap;html=1;" parent="1" vertex="1">
                    <mxGeometry x="820" y="340" width="120" height="60" as="geometry"/>
                </mxCell>
                <mxCell id="JhjFdFe-J3i2mgKOBmKf-40" value="&lt;span style=&quot;font-size: 36px;&quot;&gt;WB&lt;/span&gt;" style="rounded=0;whiteSpace=wrap;html=1;" parent="1" vertex="1">
                    <mxGeometry x="940" y="340" width="120" height="60" as="geometry"/>
                </mxCell>
                <mxCell id="JhjFdFe-J3i2mgKOBmKf-41" value="" style="rounded=0;whiteSpace=wrap;html=1;" parent="1" vertex="1">
                    <mxGeometry x="1060" y="340" width="120" height="60" as="geometry"/>
                </mxCell>
                <mxCell id="JhjFdFe-J3i2mgKOBmKf-42" value="" style="rounded=0;whiteSpace=wrap;html=1;" parent="1" vertex="1">
                    <mxGeometry x="1180" y="340" width="120" height="60" as="geometry"/>
                </mxCell>
                <mxCell id="JhjFdFe-J3i2mgKOBmKf-43" value="" style="rounded=0;whiteSpace=wrap;html=1;" parent="1" vertex="1">
                    <mxGeometry x="1300" y="340" width="120" height="60" as="geometry"/>
                </mxCell>
                <mxCell id="JhjFdFe-J3i2mgKOBmKf-52" value="&lt;span style=&quot;font-size: 36px;&quot;&gt;IF&lt;/span&gt;" style="rounded=0;whiteSpace=wrap;html=1;" parent="1" vertex="1">
                    <mxGeometry x="460" y="400" width="120" height="60" as="geometry"/>
                </mxCell>
                <mxCell id="JhjFdFe-J3i2mgKOBmKf-53" value="&lt;span style=&quot;font-size: 36px;&quot;&gt;ID&lt;/span&gt;" style="rounded=0;whiteSpace=wrap;html=1;" parent="1" vertex="1">
                    <mxGeometry x="580" y="400" width="120" height="60" as="geometry"/>
                </mxCell>
                <mxCell id="JhjFdFe-J3i2mgKOBmKf-54" value="&lt;span style=&quot;font-size: 36px;&quot;&gt;STALL&lt;/span&gt;" style="rounded=0;whiteSpace=wrap;html=1;" parent="1" vertex="1">
                    <mxGeometry x="700" y="400" width="120" height="60" as="geometry"/>
                </mxCell>
                <mxCell id="JhjFdFe-J3i2mgKOBmKf-55" value="&lt;span style=&quot;font-size: 36px;&quot;&gt;EX&lt;/span&gt;" style="rounded=0;whiteSpace=wrap;html=1;" parent="1" vertex="1">
                    <mxGeometry x="820" y="400" width="120" height="60" as="geometry"/>
                </mxCell>
                <mxCell id="JhjFdFe-J3i2mgKOBmKf-56" value="&lt;span style=&quot;font-size: 36px;&quot;&gt;MEM&lt;/span&gt;" style="rounded=0;whiteSpace=wrap;html=1;" parent="1" vertex="1">
                    <mxGeometry x="940" y="400" width="120" height="60" as="geometry"/>
                </mxCell>
                <mxCell id="JhjFdFe-J3i2mgKOBmKf-57" value="&lt;span style=&quot;font-size: 36px;&quot;&gt;WB&lt;/span&gt;" style="rounded=0;whiteSpace=wrap;html=1;" parent="1" vertex="1">
                    <mxGeometry x="1060" y="400" width="120" height="60" as="geometry"/>
                </mxCell>
                <mxCell id="JhjFdFe-J3i2mgKOBmKf-58" value="" style="rounded=0;whiteSpace=wrap;html=1;" parent="1" vertex="1">
                    <mxGeometry x="1180" y="400" width="120" height="60" as="geometry"/>
                </mxCell>
                <mxCell id="JhjFdFe-J3i2mgKOBmKf-59" value="" style="rounded=0;whiteSpace=wrap;html=1;" parent="1" vertex="1">
                    <mxGeometry x="1300" y="400" width="120" height="60" as="geometry"/>
                </mxCell>
                <mxCell id="JhjFdFe-J3i2mgKOBmKf-101" value="&lt;span style=&quot;font-size: 36px;&quot;&gt;IF&lt;/span&gt;" style="rounded=0;whiteSpace=wrap;html=1;" parent="1" vertex="1">
                    <mxGeometry x="580" y="460" width="120" height="60" as="geometry"/>
                </mxCell>
                <mxCell id="JhjFdFe-J3i2mgKOBmKf-102" value="&lt;span style=&quot;font-size: 36px;&quot;&gt;ID&lt;/span&gt;" style="rounded=0;whiteSpace=wrap;html=1;" parent="1" vertex="1">
                    <mxGeometry x="700" y="460" width="120" height="60" as="geometry"/>
                </mxCell>
                <mxCell id="JhjFdFe-J3i2mgKOBmKf-103" value="&lt;span style=&quot;font-size: 36px;&quot;&gt;STALL&lt;/span&gt;" style="rounded=0;whiteSpace=wrap;html=1;" parent="1" vertex="1">
                    <mxGeometry x="820" y="460" width="120" height="60" as="geometry"/>
                </mxCell>
                <mxCell id="JhjFdFe-J3i2mgKOBmKf-104" value="&lt;span style=&quot;font-size: 36px;&quot;&gt;EX&lt;/span&gt;" style="rounded=0;whiteSpace=wrap;html=1;" parent="1" vertex="1">
                    <mxGeometry x="940" y="460" width="120" height="60" as="geometry"/>
                </mxCell>
                <mxCell id="JhjFdFe-J3i2mgKOBmKf-105" value="&lt;span style=&quot;font-size: 36px;&quot;&gt;MEM&lt;/span&gt;" style="rounded=0;whiteSpace=wrap;html=1;" parent="1" vertex="1">
                    <mxGeometry x="1060" y="460" width="120" height="60" as="geometry"/>
                </mxCell>
                <mxCell id="JhjFdFe-J3i2mgKOBmKf-106" value="&lt;span style=&quot;font-size: 36px;&quot;&gt;WB&lt;/span&gt;" style="rounded=0;whiteSpace=wrap;html=1;" parent="1" vertex="1">
                    <mxGeometry x="1180" y="460" width="120" height="60" as="geometry"/>
                </mxCell>
                <mxCell id="JhjFdFe-J3i2mgKOBmKf-107" value="" style="rounded=0;whiteSpace=wrap;html=1;" parent="1" vertex="1">
                    <mxGeometry x="1300" y="460" width="120" height="60" as="geometry"/>
                </mxCell>
                <mxCell id="JhjFdFe-J3i2mgKOBmKf-118" value="&lt;span style=&quot;font-size: 36px;&quot;&gt;IF&lt;/span&gt;" style="rounded=0;whiteSpace=wrap;html=1;" parent="1" vertex="1">
                    <mxGeometry x="700" y="520" width="120" height="60" as="geometry"/>
                </mxCell>
                <mxCell id="JhjFdFe-J3i2mgKOBmKf-119" value="&lt;span style=&quot;font-size: 36px;&quot;&gt;ID&lt;/span&gt;" style="rounded=0;whiteSpace=wrap;html=1;" parent="1" vertex="1">
                    <mxGeometry x="820" y="520" width="120" height="60" as="geometry"/>
                </mxCell>
                <mxCell id="JhjFdFe-J3i2mgKOBmKf-120" value="&lt;span style=&quot;font-size: 36px;&quot;&gt;STALL&lt;/span&gt;" style="rounded=0;whiteSpace=wrap;html=1;" parent="1" vertex="1">
                    <mxGeometry x="940" y="520" width="120" height="60" as="geometry"/>
                </mxCell>
                <mxCell id="JhjFdFe-J3i2mgKOBmKf-121" value="&lt;span style=&quot;font-size: 36px;&quot;&gt;EX&lt;/span&gt;" style="rounded=0;whiteSpace=wrap;html=1;" parent="1" vertex="1">
                    <mxGeometry x="1060" y="520" width="120" height="60" as="geometry"/>
                </mxCell>
                <mxCell id="JhjFdFe-J3i2mgKOBmKf-122" value="&lt;span style=&quot;font-size: 36px;&quot;&gt;MEM&lt;/span&gt;" style="rounded=0;whiteSpace=wrap;html=1;" parent="1" vertex="1">
                    <mxGeometry x="1180" y="520" width="120" height="60" as="geometry"/>
                </mxCell>
                <mxCell id="JhjFdFe-J3i2mgKOBmKf-123" value="&lt;span style=&quot;font-size: 36px;&quot;&gt;WB&lt;/span&gt;" style="rounded=0;whiteSpace=wrap;html=1;" parent="1" vertex="1">
                    <mxGeometry x="1300" y="520" width="120" height="60" as="geometry"/>
                </mxCell>
                <mxCell id="JhjFdFe-J3i2mgKOBmKf-162" value="&lt;font style=&quot;font-size: 36px;&quot;&gt;-&lt;/font&gt;" style="rounded=0;whiteSpace=wrap;html=1;" parent="1" vertex="1">
                    <mxGeometry x="220" y="340" width="120" height="60" as="geometry"/>
                </mxCell>
                <mxCell id="JhjFdFe-J3i2mgKOBmKf-163" value="&lt;font style=&quot;font-size: 36px;&quot;&gt;-&lt;/font&gt;" style="rounded=0;whiteSpace=wrap;html=1;" parent="1" vertex="1">
                    <mxGeometry x="340" y="400" width="120" height="60" as="geometry"/>
                </mxCell>
                <mxCell id="JhjFdFe-J3i2mgKOBmKf-164" value="&lt;font style=&quot;font-size: 36px;&quot;&gt;-&lt;/font&gt;" style="rounded=0;whiteSpace=wrap;html=1;" parent="1" vertex="1">
                    <mxGeometry x="460" y="460" width="120" height="60" as="geometry"/>
                </mxCell>
                <mxCell id="JhjFdFe-J3i2mgKOBmKf-165" value="&lt;font style=&quot;font-size: 36px;&quot;&gt;-&lt;/font&gt;" style="rounded=0;whiteSpace=wrap;html=1;" parent="1" vertex="1">
                    <mxGeometry x="580" y="520" width="120" height="60" as="geometry"/>
                </mxCell>
                <mxCell id="JhjFdFe-J3i2mgKOBmKf-168" value="&lt;font style=&quot;font-size: 36px;&quot;&gt;-&lt;/font&gt;" style="rounded=0;whiteSpace=wrap;html=1;" parent="1" vertex="1">
                    <mxGeometry x="100" y="340" width="120" height="60" as="geometry"/>
                </mxCell>
                <mxCell id="JhjFdFe-J3i2mgKOBmKf-169" value="&lt;font style=&quot;font-size: 36px;&quot;&gt;-&lt;/font&gt;" style="rounded=0;whiteSpace=wrap;html=1;" parent="1" vertex="1">
                    <mxGeometry x="100" y="400" width="120" height="60" as="geometry"/>
                </mxCell>
                <mxCell id="JhjFdFe-J3i2mgKOBmKf-170" value="&lt;font style=&quot;font-size: 36px;&quot;&gt;-&lt;/font&gt;" style="rounded=0;whiteSpace=wrap;html=1;" parent="1" vertex="1">
                    <mxGeometry x="100" y="460" width="120" height="60" as="geometry"/>
                </mxCell>
                <mxCell id="JhjFdFe-J3i2mgKOBmKf-175" value="&lt;font style=&quot;font-size: 36px;&quot;&gt;-&lt;/font&gt;" style="rounded=0;whiteSpace=wrap;html=1;" parent="1" vertex="1">
                    <mxGeometry x="220" y="400" width="120" height="60" as="geometry"/>
                </mxCell>
                <mxCell id="JhjFdFe-J3i2mgKOBmKf-176" value="&lt;font style=&quot;font-size: 36px;&quot;&gt;-&lt;/font&gt;" style="rounded=0;whiteSpace=wrap;html=1;" parent="1" vertex="1">
                    <mxGeometry x="220" y="460" width="120" height="60" as="geometry"/>
                </mxCell>
                <mxCell id="JhjFdFe-J3i2mgKOBmKf-177" value="&lt;font style=&quot;font-size: 36px;&quot;&gt;-&lt;/font&gt;" style="rounded=0;whiteSpace=wrap;html=1;" parent="1" vertex="1">
                    <mxGeometry x="340" y="460" width="120" height="60" as="geometry"/>
                </mxCell>
                <mxCell id="JhjFdFe-J3i2mgKOBmKf-178" value="&lt;font style=&quot;font-size: 36px;&quot;&gt;-&lt;/font&gt;" style="rounded=0;whiteSpace=wrap;html=1;" parent="1" vertex="1">
                    <mxGeometry x="340" y="520" width="120" height="60" as="geometry"/>
                </mxCell>
                <mxCell id="JhjFdFe-J3i2mgKOBmKf-179" value="&lt;font style=&quot;font-size: 36px;&quot;&gt;-&lt;/font&gt;" style="rounded=0;whiteSpace=wrap;html=1;" parent="1" vertex="1">
                    <mxGeometry x="100" y="520" width="120" height="60" as="geometry"/>
                </mxCell>
                <mxCell id="JhjFdFe-J3i2mgKOBmKf-181" value="&lt;font style=&quot;font-size: 36px;&quot;&gt;-&lt;/font&gt;" style="rounded=0;whiteSpace=wrap;html=1;" parent="1" vertex="1">
                    <mxGeometry x="220" y="520" width="120" height="60" as="geometry"/>
                </mxCell>
                <mxCell id="JhjFdFe-J3i2mgKOBmKf-183" value="&lt;font style=&quot;font-size: 36px;&quot;&gt;-&lt;/font&gt;" style="rounded=0;whiteSpace=wrap;html=1;" parent="1" vertex="1">
                    <mxGeometry x="460" y="520" width="120" height="60" as="geometry"/>
                </mxCell>
                <mxCell id="JhjFdFe-J3i2mgKOBmKf-193" value="&lt;span style=&quot;font-size: 36px;&quot;&gt;CC7&lt;/span&gt;" style="rounded=0;whiteSpace=wrap;html=1;" parent="1" vertex="1">
                    <mxGeometry x="820" y="160" width="120" height="60" as="geometry"/>
                </mxCell>
                <mxCell id="JhjFdFe-J3i2mgKOBmKf-194" value="&lt;span style=&quot;font-size: 36px;&quot;&gt;CC8&lt;/span&gt;" style="rounded=0;whiteSpace=wrap;html=1;" parent="1" vertex="1">
                    <mxGeometry x="940" y="160" width="120" height="60" as="geometry"/>
                </mxCell>
                <mxCell id="JhjFdFe-J3i2mgKOBmKf-195" value="&lt;span style=&quot;font-size: 36px;&quot;&gt;CC9&lt;br&gt;&lt;/span&gt;" style="rounded=0;whiteSpace=wrap;html=1;" parent="1" vertex="1">
                    <mxGeometry x="1060" y="160" width="120" height="60" as="geometry"/>
                </mxCell>
                <mxCell id="JhjFdFe-J3i2mgKOBmKf-196" value="&lt;span style=&quot;font-size: 36px;&quot;&gt;CC10&lt;/span&gt;" style="rounded=0;whiteSpace=wrap;html=1;" parent="1" vertex="1">
                    <mxGeometry x="1180" y="160" width="120" height="60" as="geometry"/>
                </mxCell>
                <mxCell id="JhjFdFe-J3i2mgKOBmKf-197" value="&lt;span style=&quot;font-size: 36px;&quot;&gt;CC11&lt;/span&gt;" style="rounded=0;whiteSpace=wrap;html=1;" parent="1" vertex="1">
                    <mxGeometry x="1300" y="160" width="120" height="60" as="geometry"/>
                </mxCell>
                <mxCell id="JhjFdFe-J3i2mgKOBmKf-199" value="&lt;font style=&quot;font-size: 36px;&quot;&gt;CC6&lt;/font&gt;" style="rounded=0;whiteSpace=wrap;html=1;" parent="1" vertex="1">
                    <mxGeometry x="700" y="160" width="120" height="60" as="geometry"/>
                </mxCell>
                <mxCell id="JhjFdFe-J3i2mgKOBmKf-200" value="&lt;font style=&quot;font-size: 36px;&quot;&gt;CC1&lt;/font&gt;" style="rounded=0;whiteSpace=wrap;html=1;" parent="1" vertex="1">
                    <mxGeometry x="100" y="160" width="120" height="60" as="geometry"/>
                </mxCell>
                <mxCell id="JhjFdFe-J3i2mgKOBmKf-201" value="&lt;font style=&quot;font-size: 36px;&quot;&gt;CC2&lt;/font&gt;" style="rounded=0;whiteSpace=wrap;html=1;" parent="1" vertex="1">
                    <mxGeometry x="220" y="160" width="120" height="60" as="geometry"/>
                </mxCell>
                <mxCell id="JhjFdFe-J3i2mgKOBmKf-202" value="&lt;font style=&quot;font-size: 36px;&quot;&gt;CC4&lt;/font&gt;" style="rounded=0;whiteSpace=wrap;html=1;" parent="1" vertex="1">
                    <mxGeometry x="460" y="160" width="120" height="60" as="geometry"/>
                </mxCell>
                <mxCell id="JhjFdFe-J3i2mgKOBmKf-203" value="&lt;font style=&quot;font-size: 36px;&quot;&gt;CC3&lt;/font&gt;" style="rounded=0;whiteSpace=wrap;html=1;" parent="1" vertex="1">
                    <mxGeometry x="340" y="160" width="120" height="60" as="geometry"/>
                </mxCell>
                <mxCell id="JhjFdFe-J3i2mgKOBmKf-204" value="&lt;font style=&quot;font-size: 36px;&quot;&gt;CC5&lt;/font&gt;" style="rounded=0;whiteSpace=wrap;html=1;" parent="1" vertex="1">
                    <mxGeometry x="580" y="160" width="120" height="60" as="geometry"/>
                </mxCell>
                <mxCell id="JhjFdFe-J3i2mgKOBmKf-206" value="LW R1, 0(R2)&amp;nbsp;" style="rounded=0;whiteSpace=wrap;html=1;" parent="1" vertex="1">
                    <mxGeometry x="-20" y="220" width="120" height="60" as="geometry"/>
                </mxCell>
                <mxCell id="JhjFdFe-J3i2mgKOBmKf-207" value="ADD R1, R1, R2" style="rounded=0;whiteSpace=wrap;html=1;" parent="1" vertex="1">
                    <mxGeometry x="-20" y="280" width="120" height="60" as="geometry"/>
                </mxCell>
                <mxCell id="JhjFdFe-J3i2mgKOBmKf-208" value="SUB R3, R3, R2&amp;nbsp;" style="rounded=0;whiteSpace=wrap;html=1;" parent="1" vertex="1">
                    <mxGeometry x="-20" y="340" width="120" height="60" as="geometry"/>
                </mxCell>
                <mxCell id="JhjFdFe-J3i2mgKOBmKf-209" value="ADD R2, R1, R2" style="rounded=0;whiteSpace=wrap;html=1;" parent="1" vertex="1">
                    <mxGeometry x="-20" y="400" width="120" height="60" as="geometry"/>
                </mxCell>
                <mxCell id="JhjFdFe-J3i2mgKOBmKf-210" value="ADD R1, R1, R2" style="rounded=0;whiteSpace=wrap;html=1;" parent="1" vertex="1">
                    <mxGeometry x="-20" y="460" width="120" height="60" as="geometry"/>
                </mxCell>
                <mxCell id="JhjFdFe-J3i2mgKOBmKf-211" value="ADD R3, R1, R2" style="rounded=0;whiteSpace=wrap;html=1;" parent="1" vertex="1">
                    <mxGeometry x="-20" y="520" width="120" height="60" as="geometry"/>
                </mxCell>
                <mxCell id="JhjFdFe-J3i2mgKOBmKf-212" value="&lt;font size=&quot;3&quot;&gt;INSTRUCTION&lt;/font&gt;" style="rounded=0;whiteSpace=wrap;html=1;" parent="1" vertex="1">
                    <mxGeometry x="-20" y="160" width="120" height="60" as="geometry"/>
                </mxCell>
                <mxCell id="JhjFdFe-J3i2mgKOBmKf-214" value="" style="shape=flexArrow;endArrow=classic;html=1;rounded=0;fontSize=24;entryX=0.5;entryY=1;entryDx=0;entryDy=0;exitX=0;exitY=0.5;exitDx=0;exitDy=0;" parent="1" source="JhjFdFe-J3i2mgKOBmKf-5" target="JhjFdFe-J3i2mgKOBmKf-5" edge="1">
                    <mxGeometry width="50" height="50" relative="1" as="geometry">
                        <mxPoint x="660" y="310" as="sourcePoint"/>
                        <mxPoint x="710" y="260" as="targetPoint"/>
                    </mxGeometry>
                </mxCell>
                <mxCell id="JhjFdFe-J3i2mgKOBmKf-217" value="" style="shape=flexArrow;endArrow=classic;html=1;rounded=0;fontSize=24;entryX=0.5;entryY=0;entryDx=0;entryDy=0;" parent="1" target="JhjFdFe-J3i2mgKOBmKf-104" edge="1">
                    <mxGeometry width="50" height="50" relative="1" as="geometry">
                        <mxPoint x="940" y="430" as="sourcePoint"/>
                        <mxPoint x="890" y="410" as="targetPoint"/>
                    </mxGeometry>
                </mxCell>
                <mxCell id="JhjFdFe-J3i2mgKOBmKf-220" value="" style="shape=flexArrow;endArrow=classic;html=1;rounded=0;fontSize=14;" parent="1" edge="1">
                    <mxGeometry width="50" height="50" relative="1" as="geometry">
                        <mxPoint x="-210" y="270" as="sourcePoint"/>
                        <mxPoint x="-110" y="270" as="targetPoint"/>
                    </mxGeometry>
                </mxCell>
                <mxCell id="JhjFdFe-J3i2mgKOBmKf-221" value="This arrow means forwarding" style="text;html=1;strokeColor=none;fillColor=none;align=center;verticalAlign=middle;whiteSpace=wrap;rounded=0;fontSize=14;" parent="1" vertex="1">
                    <mxGeometry x="-200" y="290" width="60" height="30" as="geometry"/>
                </mxCell>
                <mxCell id="2" value="" style="shape=flexArrow;endArrow=classic;html=1;rounded=0;fontSize=24;entryX=0.5;entryY=1;entryDx=0;entryDy=0;exitX=0;exitY=0.5;exitDx=0;exitDy=0;" parent="1" source="JhjFdFe-J3i2mgKOBmKf-105" target="JhjFdFe-J3i2mgKOBmKf-105" edge="1">
                    <mxGeometry width="50" height="50" relative="1" as="geometry">
                        <mxPoint x="1060" y="490" as="sourcePoint"/>
                        <mxPoint x="1010" y="470" as="targetPoint"/>
                    </mxGeometry>
                </mxCell>
                <mxCell id="4" value="" style="shape=flexArrow;endArrow=classic;html=1;rounded=0;fontSize=24;entryX=0.5;entryY=0;entryDx=0;entryDy=0;exitX=1;exitY=0.5;exitDx=0;exitDy=0;" parent="1" source="JhjFdFe-J3i2mgKOBmKf-22" target="JhjFdFe-J3i2mgKOBmKf-55" edge="1">
                    <mxGeometry width="50" height="50" relative="1" as="geometry">
                        <mxPoint x="590" y="260" as="sourcePoint"/>
                        <mxPoint x="650" y="290" as="targetPoint"/>
                    </mxGeometry>
                </mxCell>
            </root>
        </mxGraphModel>
    </diagram>
</mxfile>